<svg xmlns="http://www.w3.org/2000/svg" width="180" height="180" viewBox="0 0 180 180">
  <defs>
    <radialGradient id="bezel" cx="35%" cy="28%" r="72%">
      <stop offset="0" stop-color="#f1eee4"/>
      <stop offset=".18" stop-color="#aaa492"/>
      <stop offset=".46" stop-color="#514f48"/>
      <stop offset=".72" stop-color="#242625"/>
      <stop offset="1" stop-color="#080a0a"/>
    </radialGradient>
    <radialGradient id="cap" cx="36%" cy="28%" r="72%">
      <stop offset="0" stop-color="#f5ecd8"/>
      <stop offset=".45" stop-color="#d2c2a4"/>
      <stop offset=".77" stop-color="#8e816b"/>
      <stop offset="1" stop-color="#4e473c"/>
    </radialGradient>
    <filter id="shadow" x="-40%" y="-40%" width="180%" height="180%"><feDropShadow dx="5" dy="7" stdDeviation="6" flood-color="#000" flood-opacity=".75"/></filter>
  </defs>
  <circle cx="90" cy="92" r="73" fill="#050707" opacity=".72"/>
  <circle cx="90" cy="86" r="69" fill="url(#bezel)" stroke="#080909" stroke-width="4" filter="url(#shadow)"/>
  <g opacity=".5" stroke="#0b0c0c" stroke-width="3">
    <path d="M90 19v9M121 26l-4 8M145 47l-7 6M158 77l-9 2M158 108l-9-2M145 137l-7-6M121 158l-4-8M59 158l4-8M35 137l7-6M22 108l9-2M22 77l9 2M35 47l7 6M59 26l4 8"/>
  </g>
  <circle cx="90" cy="86" r="53" fill="url(#cap)" stroke="#2d2b26" stroke-width="2.8"/>
  <circle cx="90" cy="86" r="47" fill="none" stroke="#fff" stroke-opacity=".24" stroke-width="1.8"/>
  <path d="M90 46v29" stroke="#1f211f" stroke-width="7" stroke-linecap="round"/>
  <path d="M90 47v27" stroke="#fff" stroke-opacity=".3" stroke-width="2" stroke-linecap="round"/>
  <ellipse cx="70" cy="60" rx="18" ry="8" fill="#fff" opacity=".12" transform="rotate(-30 70 60)"/>
</svg>